<?xml version="1.0" standalone="yes"?>
<!-- SVG graphic -->
<svg xmlns='http://www.w3.org/2000/svg' xmlns:xlink='http://www.w3.org/1999/xlink'
width="435px" height="435px" preserveAspectRatio="xMinYMin meet" viewBox="0 0 435 435" version="1.1">
<rect x="10" y="0" width="2.5" height="2.5" fill="blue"/>
<rect x="15" y="0" width="2.5" height="2.5" fill="blue"/>
<rect x="20" y="0" width="2.5" height="2.5" fill="blue"/>
<rect x="25" y="0" width="2.5" height="2.5" fill="blue"/>
<rect x="30" y="0" width="2.5" height="2.5" fill="blue"/>
<rect x="35" y="0" width="2.5" height="2.5" fill="blue"/>
<rect x="135" y="0" width="2.5" height="2.5" fill="blue"/>
<rect x="160" y="0" width="2.5" height="2.5" fill="blue"/>
<rect x="165" y="0" width="2.5" height="2.5" fill="blue"/>
<rect x="170" y="0" width="2.5" height="2.5" fill="blue"/>
<rect x="175" y="0" width="2.5" height="2.5" fill="blue"/>
<rect x="180" y="0" width="2.5" height="2.5" fill="blue"/>
<rect x="280" y="0" width="2.5" height="2.5" fill="blue"/>
<rect x="310" y="0" width="2.5" height="2.5" fill="blue"/>
<rect x="315" y="0" width="2.5" height="2.5" fill="blue"/>
<rect x="320" y="0" width="2.5" height="2.5" fill="blue"/>
<rect x="325" y="0" width="2.5" height="2.5" fill="blue"/>
<rect x="330" y="0" width="2.5" height="2.5" fill="blue"/>
<rect x="335" y="0" width="2.5" height="2.5" fill="blue"/>
<rect x="345" y="0" width="2.5" height="2.5" fill="blue"/>
<rect x="350" y="0" width="2.5" height="2.5" fill="blue"/>
<rect x="360" y="0" width="2.5" height="2.5" fill="blue"/>
<rect x="365" y="0" width="2.5" height="2.5" fill="blue"/>
<rect x="370" y="0" width="2.5" height="2.5" fill="blue"/>
<rect x="375" y="0" width="2.5" height="2.5" fill="blue"/>
<rect x="405" y="0" width="2.5" height="2.5" fill="blue"/>
<rect x="415" y="0" width="2.5" height="2.5" fill="blue"/>
<rect x="65" y="5" width="2.5" height="2.5" fill="blue"/>
<rect x="15" y="10" width="2.5" height="2.5" fill="blue"/>
<rect x="30" y="10" width="2.5" height="2.5" fill="blue"/>
<rect x="35" y="10" width="2.5" height="2.5" fill="blue"/>
<rect x="50" y="10" width="2.5" height="2.5" fill="blue"/>
<rect x="55" y="10" width="2.5" height="2.5" fill="blue"/>
<rect x="155" y="10" width="2.5" height="2.5" fill="blue"/>
<rect x="280" y="10" width="2.5" height="2.5" fill="blue"/>
<rect x="310" y="10" width="2.5" height="2.5" fill="blue"/>
<rect x="415" y="10" width="2.5" height="2.5" fill="blue"/>
<rect x="25" y="15" width="2.5" height="2.5" fill="blue"/>
<rect x="30" y="15" width="2.5" height="2.5" fill="blue"/>
<rect x="35" y="15" width="2.5" height="2.5" fill="blue"/>
<rect x="60" y="15" width="2.5" height="2.5" fill="blue"/>
<rect x="150" y="15" width="2.5" height="2.5" fill="blue"/>
<rect x="155" y="15" width="2.5" height="2.5" fill="blue"/>
<rect x="310" y="15" width="2.5" height="2.5" fill="blue"/>
<rect x="320" y="15" width="2.5" height="2.5" fill="blue"/>
<rect x="35" y="20" width="2.5" height="2.5" fill="blue"/>
<rect x="155" y="20" width="2.5" height="2.5" fill="blue"/>
<rect x="160" y="20" width="2.5" height="2.5" fill="blue"/>
<rect x="165" y="20" width="2.5" height="2.5" fill="blue"/>
<rect x="180" y="20" width="2.5" height="2.5" fill="blue"/>
<rect x="280" y="20" width="2.5" height="2.5" fill="blue"/>
<rect x="285" y="20" width="2.5" height="2.5" fill="blue"/>
<rect x="315" y="20" width="2.5" height="2.5" fill="blue"/>
<rect x="350" y="20" width="2.5" height="2.5" fill="blue"/>
<rect x="355" y="20" width="2.5" height="2.5" fill="blue"/>
<rect x="30" y="25" width="2.5" height="2.5" fill="blue"/>
<rect x="35" y="25" width="2.5" height="2.5" fill="blue"/>
<rect x="155" y="25" width="2.5" height="2.5" fill="blue"/>
<rect x="165" y="25" width="2.5" height="2.5" fill="blue"/>
<rect x="170" y="25" width="2.5" height="2.5" fill="blue"/>
<rect x="290" y="25" width="2.5" height="2.5" fill="blue"/>
<rect x="310" y="25" width="2.5" height="2.5" fill="blue"/>
<rect x="320" y="25" width="2.5" height="2.5" fill="blue"/>
<rect x="375" y="25" width="2.5" height="2.5" fill="blue"/>
<rect x="405" y="25" width="2.5" height="2.5" fill="blue"/>
<rect x="415" y="25" width="2.5" height="2.5" fill="blue"/>
<rect x="35" y="30" width="2.5" height="2.5" fill="blue"/>
<rect x="155" y="30" width="2.5" height="2.5" fill="blue"/>
<rect x="165" y="30" width="2.5" height="2.5" fill="blue"/>
<rect x="170" y="30" width="2.5" height="2.5" fill="blue"/>
<rect x="290" y="30" width="2.5" height="2.5" fill="blue"/>
<rect x="310" y="30" width="2.5" height="2.5" fill="blue"/>
<rect x="315" y="30" width="2.5" height="2.5" fill="blue"/>
<rect x="320" y="30" width="2.5" height="2.5" fill="blue"/>
<rect x="325" y="30" width="2.5" height="2.5" fill="blue"/>
<rect x="340" y="30" width="2.5" height="2.5" fill="blue"/>
<rect x="345" y="30" width="2.5" height="2.5" fill="blue"/>
<rect x="370" y="30" width="2.5" height="2.5" fill="blue"/>
<rect x="375" y="30" width="2.5" height="2.5" fill="blue"/>
<rect x="405" y="30" width="2.5" height="2.5" fill="blue"/>
<rect x="415" y="30" width="2.5" height="2.5" fill="blue"/>
<rect x="150" y="35" width="2.5" height="2.5" fill="blue"/>
<rect x="155" y="35" width="2.5" height="2.5" fill="blue"/>
<rect x="280" y="35" width="2.5" height="2.5" fill="blue"/>
<rect x="310" y="35" width="2.5" height="2.5" fill="blue"/>
<rect x="320" y="35" width="2.5" height="2.5" fill="blue"/>
<rect x="415" y="35" width="2.5" height="2.5" fill="blue"/>
<rect x="65" y="40" width="2.5" height="2.5" fill="blue"/>
<rect x="130" y="40" width="2.5" height="2.5" fill="blue"/>
<rect x="270" y="45" width="2.5" height="2.5" fill="blue"/>
<rect x="275" y="50" width="2.5" height="2.5" fill="blue"/>
<rect x="60" y="55" width="2.5" height="2.5" fill="blue"/>
<rect x="115" y="55" width="2.5" height="2.5" fill="blue"/>
<rect x="235" y="60" width="2.5" height="2.5" fill="blue"/>
<rect x="125" y="65" width="2.5" height="2.5" fill="blue"/>
<rect x="75" y="70" width="2.5" height="2.5" fill="blue"/>
<rect x="125" y="70" width="2.5" height="2.5" fill="blue"/>
<rect x="80" y="75" width="2.5" height="2.5" fill="blue"/>
<rect x="85" y="80" width="2.5" height="2.5" fill="blue"/>
<rect x="95" y="90" width="2.5" height="2.5" fill="blue"/>
<rect x="100" y="90" width="2.5" height="2.5" fill="blue"/>
<rect x="100" y="95" width="2.5" height="2.5" fill="blue"/>
<rect x="380" y="95" width="2.5" height="2.5" fill="blue"/>
<rect x="185" y="100" width="2.5" height="2.5" fill="blue"/>
<rect x="380" y="100" width="2.5" height="2.5" fill="blue"/>
<rect x="190" y="105" width="2.5" height="2.5" fill="blue"/>
<rect x="205" y="110" width="2.5" height="2.5" fill="blue"/>
<rect x="210" y="110" width="2.5" height="2.5" fill="blue"/>
<rect x="395" y="115" width="2.5" height="2.5" fill="blue"/>
<rect x="160" y="135" width="2.5" height="2.5" fill="blue"/>
<rect x="315" y="135" width="2.5" height="2.5" fill="blue"/>
<rect x="335" y="135" width="2.5" height="2.5" fill="blue"/>
<rect x="350" y="135" width="2.5" height="2.5" fill="blue"/>
<rect x="355" y="135" width="2.5" height="2.5" fill="blue"/>
<rect x="360" y="135" width="2.5" height="2.5" fill="blue"/>
<rect x="375" y="135" width="2.5" height="2.5" fill="blue"/>
<rect x="175" y="140" width="2.5" height="2.5" fill="blue"/>
<rect x="335" y="140" width="2.5" height="2.5" fill="blue"/>
<rect x="340" y="140" width="2.5" height="2.5" fill="blue"/>
<rect x="345" y="140" width="2.5" height="2.5" fill="blue"/>
<rect x="175" y="145" width="2.5" height="2.5" fill="blue"/>
<rect x="330" y="145" width="2.5" height="2.5" fill="blue"/>
<rect x="305" y="150" width="2.5" height="2.5" fill="blue"/>
<rect x="310" y="150" width="2.5" height="2.5" fill="blue"/>
<rect x="160" y="155" width="2.5" height="2.5" fill="blue"/>
<rect x="165" y="155" width="2.5" height="2.5" fill="blue"/>
<rect x="180" y="155" width="2.5" height="2.5" fill="blue"/>
<rect x="280" y="155" width="2.5" height="2.5" fill="blue"/>
<rect x="285" y="155" width="2.5" height="2.5" fill="blue"/>
<rect x="310" y="155" width="2.5" height="2.5" fill="blue"/>
<rect x="320" y="155" width="2.5" height="2.5" fill="blue"/>
<rect x="355" y="155" width="2.5" height="2.5" fill="blue"/>
<rect x="370" y="155" width="2.5" height="2.5" fill="blue"/>
<rect x="165" y="160" width="2.5" height="2.5" fill="blue"/>
<rect x="180" y="160" width="2.5" height="2.5" fill="blue"/>
<rect x="280" y="160" width="2.5" height="2.5" fill="blue"/>
<rect x="285" y="160" width="2.5" height="2.5" fill="blue"/>
<rect x="315" y="160" width="2.5" height="2.5" fill="blue"/>
<rect x="350" y="160" width="2.5" height="2.5" fill="blue"/>
<rect x="355" y="160" width="2.5" height="2.5" fill="blue"/>
<rect x="170" y="165" width="2.5" height="2.5" fill="blue"/>
<rect x="180" y="165" width="2.5" height="2.5" fill="blue"/>
<rect x="280" y="165" width="2.5" height="2.5" fill="blue"/>
<rect x="285" y="165" width="2.5" height="2.5" fill="blue"/>
<rect x="310" y="165" width="2.5" height="2.5" fill="blue"/>
<rect x="320" y="165" width="2.5" height="2.5" fill="blue"/>
<rect x="350" y="165" width="2.5" height="2.5" fill="blue"/>
<rect x="355" y="165" width="2.5" height="2.5" fill="blue"/>
<rect x="370" y="165" width="2.5" height="2.5" fill="blue"/>
<rect x="375" y="165" width="2.5" height="2.5" fill="blue"/>
<rect x="405" y="165" width="2.5" height="2.5" fill="blue"/>
<rect x="415" y="165" width="2.5" height="2.5" fill="blue"/>
<rect x="320" y="170" width="2.5" height="2.5" fill="blue"/>
<rect x="370" y="170" width="2.5" height="2.5" fill="blue"/>
<rect x="375" y="170" width="2.5" height="2.5" fill="blue"/>
<rect x="405" y="170" width="2.5" height="2.5" fill="blue"/>
<rect x="415" y="170" width="2.5" height="2.5" fill="blue"/>
<rect x="325" y="175" width="2.5" height="2.5" fill="blue"/>
<rect x="330" y="175" width="2.5" height="2.5" fill="blue"/>
<rect x="335" y="175" width="2.5" height="2.5" fill="blue"/>
<rect x="340" y="175" width="2.5" height="2.5" fill="blue"/>
<rect x="350" y="175" width="2.5" height="2.5" fill="blue"/>
<rect x="370" y="175" width="2.5" height="2.5" fill="blue"/>
<rect x="375" y="175" width="2.5" height="2.5" fill="blue"/>
<rect x="280" y="180" width="2.5" height="2.5" fill="blue"/>
<rect x="285" y="180" width="2.5" height="2.5" fill="blue"/>
<rect x="310" y="180" width="2.5" height="2.5" fill="blue"/>
<rect x="315" y="180" width="2.5" height="2.5" fill="blue"/>
<rect x="355" y="180" width="2.5" height="2.5" fill="blue"/>
<rect x="415" y="180" width="2.5" height="2.5" fill="blue"/>
<rect x="380" y="185" width="2.5" height="2.5" fill="blue"/>
<rect x="385" y="195" width="2.5" height="2.5" fill="blue"/>
<rect x="205" y="200" width="2.5" height="2.5" fill="blue"/>
<rect x="230" y="225" width="2.5" height="2.5" fill="blue"/>
<rect x="390" y="230" width="2.5" height="2.5" fill="blue"/>
<rect x="305" y="235" width="2.5" height="2.5" fill="blue"/>
<rect x="275" y="270" width="2.5" height="2.5" fill="blue"/>
<rect x="285" y="280" width="2.5" height="2.5" fill="blue"/>
<rect x="310" y="280" width="2.5" height="2.5" fill="blue"/>
<rect x="315" y="280" width="2.5" height="2.5" fill="blue"/>
<rect x="415" y="280" width="2.5" height="2.5" fill="blue"/>
<rect x="315" y="285" width="2.5" height="2.5" fill="blue"/>
<rect x="355" y="285" width="2.5" height="2.5" fill="blue"/>
<rect x="320" y="290" width="2.5" height="2.5" fill="blue"/>
<rect x="340" y="290" width="2.5" height="2.5" fill="blue"/>
<rect x="345" y="290" width="2.5" height="2.5" fill="blue"/>
<rect x="350" y="290" width="2.5" height="2.5" fill="blue"/>
<rect x="365" y="290" width="2.5" height="2.5" fill="blue"/>
<rect x="405" y="290" width="2.5" height="2.5" fill="blue"/>
<rect x="415" y="290" width="2.5" height="2.5" fill="blue"/>
<rect x="320" y="310" width="2.5" height="2.5" fill="blue"/>
<rect x="375" y="310" width="2.5" height="2.5" fill="blue"/>
<rect x="415" y="310" width="2.5" height="2.5" fill="blue"/>
<rect x="335" y="315" width="2.5" height="2.5" fill="blue"/>
<rect x="340" y="315" width="2.5" height="2.5" fill="blue"/>
<rect x="345" y="315" width="2.5" height="2.5" fill="blue"/>
<rect x="350" y="315" width="2.5" height="2.5" fill="blue"/>
<rect x="355" y="315" width="2.5" height="2.5" fill="blue"/>
<rect x="360" y="315" width="2.5" height="2.5" fill="blue"/>
<rect x="365" y="315" width="2.5" height="2.5" fill="blue"/>
<rect x="375" y="315" width="2.5" height="2.5" fill="blue"/>
<rect x="405" y="315" width="2.5" height="2.5" fill="blue"/>
<rect x="415" y="315" width="2.5" height="2.5" fill="blue"/>
<rect x="350" y="320" width="2.5" height="2.5" fill="blue"/>
<rect x="355" y="320" width="2.5" height="2.5" fill="blue"/>
<rect x="370" y="320" width="2.5" height="2.5" fill="blue"/>
<rect x="375" y="320" width="2.5" height="2.5" fill="blue"/>
<rect x="405" y="320" width="2.5" height="2.5" fill="blue"/>
<rect x="415" y="320" width="2.5" height="2.5" fill="blue"/>
<rect x="330" y="325" width="2.5" height="2.5" fill="blue"/>
<rect x="335" y="325" width="2.5" height="2.5" fill="blue"/>
<rect x="370" y="325" width="2.5" height="2.5" fill="blue"/>
<rect x="375" y="325" width="2.5" height="2.5" fill="blue"/>
<rect x="335" y="330" width="2.5" height="2.5" fill="blue"/>
<rect x="340" y="330" width="2.5" height="2.5" fill="blue"/>
<rect x="370" y="330" width="2.5" height="2.5" fill="blue"/>
<rect x="375" y="330" width="2.5" height="2.5" fill="blue"/>
<rect x="340" y="335" width="2.5" height="2.5" fill="blue"/>
<rect x="345" y="335" width="2.5" height="2.5" fill="blue"/>
<rect x="350" y="335" width="2.5" height="2.5" fill="blue"/>
<rect x="370" y="335" width="2.5" height="2.5" fill="blue"/>
<rect x="375" y="335" width="2.5" height="2.5" fill="blue"/>
<rect x="415" y="335" width="2.5" height="2.5" fill="blue"/>
<rect x="345" y="340" width="2.5" height="2.5" fill="blue"/>
<rect x="350" y="340" width="2.5" height="2.5" fill="blue"/>
<rect x="405" y="340" width="2.5" height="2.5" fill="blue"/>
<rect x="415" y="340" width="2.5" height="2.5" fill="blue"/>
<rect x="350" y="345" width="2.5" height="2.5" fill="blue"/>
<rect x="355" y="345" width="2.5" height="2.5" fill="blue"/>
<rect x="405" y="345" width="2.5" height="2.5" fill="blue"/>
<rect x="415" y="345" width="2.5" height="2.5" fill="blue"/>
<rect x="355" y="350" width="2.5" height="2.5" fill="blue"/>
<rect x="360" y="350" width="2.5" height="2.5" fill="blue"/>
<rect x="365" y="350" width="2.5" height="2.5" fill="blue"/>
<rect x="375" y="350" width="2.5" height="2.5" fill="blue"/>
<rect x="405" y="350" width="2.5" height="2.5" fill="blue"/>
<rect x="415" y="350" width="2.5" height="2.5" fill="blue"/>
<rect x="415" y="355" width="2.5" height="2.5" fill="blue"/>
<rect x="365" y="360" width="2.5" height="2.5" fill="blue"/>
<rect x="375" y="360" width="2.5" height="2.5" fill="blue"/>
<rect x="415" y="360" width="2.5" height="2.5" fill="blue"/>
<rect x="375" y="365" width="2.5" height="2.5" fill="blue"/>
<rect x="405" y="365" width="2.5" height="2.5" fill="blue"/>
<rect x="415" y="365" width="2.5" height="2.5" fill="blue"/>
<rect x="375" y="370" width="2.5" height="2.5" fill="blue"/>
<rect x="415" y="370" width="2.5" height="2.5" fill="blue"/>
<rect x="410" y="375" width="2.5" height="2.5" fill="blue"/>
<rect x="415" y="375" width="2.5" height="2.5" fill="blue"/>
<rect x="415" y="405" width="2.5" height="2.5" fill="blue"/>
<text x="425" y="5" font-size="5" fill="black">0</text>
<text x="425" y="415" font-size="5" fill="black">84</text>
<polyline points="425,10,425,410" stroke="black" stroke-width="1" fill="none"/>
<text x="5" y="425" font-size="5" fill="black">0</text>
<text x="415" y="425" font-size="5" fill="black">84</text>
<polyline points="10,425,410,425" stroke="black" stroke-width="1" fill="none"/>
</svg>