<?xml version="1.0" encoding="UTF-8"?>
<svg xmlns="http://www.w3.org/2000/svg" xmlns:xlink="http://www.w3.org/1999/xlink" width="20px" height="20px" viewBox="0 0 20 20" version="1.1">
<g id="surface1">
<path style=" stroke:none;fill-rule:evenodd;fill:rgb(0%,0%,0%);fill-opacity:1;" d="M 7.332031 0 C 6.714844 0 6.199219 0.429688 6.046875 1 L 3.667969 1 C 2.933594 1 2.332031 1.601562 2.332031 2.332031 L 2.332031 14.667969 C 2.332031 15.398438 2.933594 16 3.667969 16 L 13.667969 16 C 14.398438 16 15 15.398438 15 14.667969 L 15 13.3125 C 16.496094 13.148438 17.667969 11.875 17.667969 10.332031 C 17.667969 8.792969 16.496094 7.519531 15 7.351562 L 15 2.332031 C 15 1.601562 14.398438 1 13.667969 1 L 11.285156 1 C 11.136719 0.425781 10.617188 0 10 0 Z M 7.332031 0.667969 L 10 0.667969 C 10.375 0.667969 10.667969 0.957031 10.667969 1.332031 C 10.667969 1.707031 10.375 2 10 2 L 7.332031 2 C 6.957031 2 6.667969 1.707031 6.667969 1.332031 C 6.667969 0.957031 6.957031 0.667969 7.332031 0.667969 Z M 3.667969 1.667969 L 6.046875 1.667969 C 6.199219 2.238281 6.714844 2.667969 7.332031 2.667969 L 10 2.667969 C 10.617188 2.667969 11.136719 2.238281 11.285156 1.667969 L 13.667969 1.667969 C 14.042969 1.667969 14.332031 1.957031 14.332031 2.332031 L 14.332031 7.355469 C 12.835938 7.519531 11.667969 8.792969 11.667969 10.332031 C 11.667969 11.875 12.835938 13.144531 14.332031 13.3125 L 14.332031 14.667969 C 14.332031 15.042969 14.042969 15.332031 13.667969 15.332031 L 3.667969 15.332031 C 3.292969 15.332031 3 15.042969 3 14.667969 L 3 2.332031 C 3 1.957031 3.292969 1.667969 3.667969 1.667969 Z M 5.332031 4.667969 C 5.148438 4.667969 5 4.816406 5 5 C 5 5.089844 5.035156 5.171875 5.097656 5.234375 C 5.160156 5.296875 5.246094 5.332031 5.332031 5.332031 L 12 5.332031 C 12.089844 5.332031 12.171875 5.296875 12.234375 5.234375 C 12.296875 5.171875 12.332031 5.089844 12.332031 5 C 12.332031 4.910156 12.296875 4.828125 12.234375 4.765625 C 12.171875 4.703125 12.089844 4.667969 12 4.667969 Z M 5.332031 7.332031 C 5.148438 7.332031 5 7.484375 5 7.667969 C 5 7.851562 5.148438 8 5.332031 8 L 11.332031 8 C 11.515625 8 11.667969 7.851562 11.667969 7.667969 C 11.667969 7.484375 11.515625 7.332031 11.332031 7.332031 Z M 14.667969 8 C 15.960938 8 17 9.039062 17 10.332031 C 17 11.625 15.960938 12.667969 14.667969 12.667969 C 13.375 12.667969 12.332031 11.625 12.332031 10.332031 C 12.332031 9.039062 13.375 8 14.667969 8 Z M 15.726562 9.332031 C 15.625 9.335938 15.535156 9.382812 15.472656 9.457031 L 14.347656 10.863281 L 13.773438 10.40625 C 13.707031 10.351562 13.617188 10.324219 13.53125 10.335938 C 13.441406 10.34375 13.359375 10.390625 13.304688 10.457031 C 13.25 10.527344 13.226562 10.617188 13.234375 10.703125 C 13.246094 10.792969 13.289062 10.871094 13.359375 10.925781 L 14.191406 11.59375 C 14.335938 11.707031 14.546875 11.683594 14.660156 11.542969 L 15.992188 9.875 C 16.050781 9.804688 16.074219 9.71875 16.066406 9.628906 C 16.054688 9.542969 16.011719 9.460938 15.941406 9.40625 C 15.878906 9.355469 15.804688 9.332031 15.726562 9.332031 Z M 5.332031 10 C 5.148438 10 5 10.148438 5 10.332031 C 5 10.515625 5.148438 10.667969 5.332031 10.667969 L 10.332031 10.667969 C 10.515625 10.667969 10.667969 10.515625 10.667969 10.332031 C 10.667969 10.148438 10.515625 10 10.332031 10 Z M 5.332031 12.667969 C 5.148438 12.667969 5 12.816406 5 13 C 5 13.183594 5.148438 13.332031 5.332031 13.332031 L 11.332031 13.332031 C 11.515625 13.332031 11.667969 13.183594 11.667969 13 C 11.667969 12.816406 11.515625 12.667969 11.332031 12.667969 Z M 5.332031 12.667969 "/>
</g>
</svg>
