0
SECTION
2
HEADER
9
$INSUNITS
70
4
9
$ACADVER
1
AC1014
9
$HANDSEED
5
FFFF
0
ENDSEC
0
SECTION
2
TABLES
0
TABLE
2
VPORT
5
8
100
AcDbSymbolTable
0
ENDTAB
0
TABLE
2
LTYPE
5
5
100
AcDbSymbolTable
0
LTYPE
5
14
100
AcDbSymbolTableRecord
100
AcDbLinetypeTableRecord
2
BYBLOCK
70
0
0
LTYPE
5
15
100
AcDbSymbolTableRecord
100
AcDbLinetypeTableRecord
2
BYLAYER
70
0
0
ENDTAB
0
TABLE
2
LAYER
5
2
100
AcDbSymbolTable
70
2
0
LAYER
5
50
100
AcDbSymbolTableRecord
100
AcDbLayerTableRecord
2
0
70
0
6
CONTINUOUS
0
ENDTAB
0
TABLE
2
STYLE
5
3
100
AcDbSymbolTable
70
1
0
STYLE
5
11
100
AcDbSymbolTableRecord
100
AcDbTextStyleTableRecord
2
STANDARD
70
0
0
ENDTAB
0
TABLE
2
VIEW
5
6
100
AcDbSymbolTable
70
0
0
ENDTAB
0
TABLE
2
UCS
5
7
100
AcDbSymbolTable
70
0
0
ENDTAB
0
TABLE
2
APPID
5
9
100
AcDbSymbolTable
70
2
0
APPID
5
12
100
AcDbSymbolTableRecord
100
AcDbRegAppTableRecord
2
ACAD
70
0
0
ENDTAB
0
TABLE
2
DIMSTYLE
5
A
100
AcDbSymbolTable
70
1
0
ENDTAB
0
TABLE
2
BLOCK_RECORD
5
1
100
AcDbSymbolTable
70
1
0
BLOCK_RECORD
5
1F
100
AcDbSymbolTableRecord
100
AcDbBlockTableRecord
2
*MODEL_SPACE
0
BLOCK_RECORD
5
1B
100
AcDbSymbolTableRecord
100
AcDbBlockTableRecord
2
*PAPER_SPACE
0
ENDTAB
0
ENDSEC
0
SECTION
2
BLOCKS
0
BLOCK
5
20
100
AcDbEntity
100
AcDbBlockBegin
2
*MODEL_SPACE
0
ENDBLK
5
21
100
AcDbEntity
100
AcDbBlockEnd
0
BLOCK
5
1C
100
AcDbEntity
100
AcDbBlockBegin
2
*PAPER_SPACE
0
ENDBLK
5
1D
100
AcDbEntity
100
AcDbBlockEnd
0
ENDSEC
0
SECTION
2
ENTITIES
0
LWPOLYLINE
5
100
100
AcDbEntity
8
0
100
AcDbPolyline
90
71
70
1
43
0.0
10
-43.400001525878906
20
-53.750000953674316
10
-43.400001525878906
20
-3.0000001192092896
10
-43.379950523376465
20
-2.5663387775421143
10
-43.319973945617676
20
-2.1363773941993713
10
-43.220582008361816
20
-1.7137840390205383
10
-43.082618713378906
20
-1.3021641969680786
10
-42.907271385192871
20
-0.90502969920635223
10
-42.696022987365723
20
-0.52576880902051926
10
-42.450680732727051
20
-0.16761720180511475
10
-42.173342704772949
20
0.16636952757835388
10
-41.866374015808105
20
0.47334190458059311
10
-41.532382965087891
20
0.75068101286888123
10
-41.174235343933105
20
0.99602058529853821
10
-40.794973373413086
20
1.2072675675153732
10
-40.397834777832031
20
1.3826195895671844
10
-39.986217021942139
20
1.5205805003643036
10
-39.56362247467041
20
1.6199736297130585
10
-39.133663177490234
20
1.6799506545066833
10
-38.700001239776611
20
1.7000000178813934
10
39.500000476837158
20
1.7000000178813934
10
39.933662414550781
20
1.6799506545066833
10
40.363626480102539
20
1.6199736297130585
10
40.786218643188477
20
1.5205805003643036
10
41.197834014892578
20
1.3826195895671844
10
41.594972610473633
20
1.2072675675153732
10
41.974234580993652
20
0.99602058529853821
10
42.332382202148438
20
0.75068101286888123
10
42.666373252868652
20
0.47334190458059311
10
42.973341941833496
20
0.16636952757835388
10
43.25068473815918
20
-0.16761720180511475
10
43.49602222442627
20
-0.52576880902051926
10
43.707270622253418
20
-0.90502969920635223
10
43.882617950439453
20
-1.3021641969680786
10
44.020581245422363
20
-1.7137840390205383
10
44.119973182678223
20
-2.1363773941993713
10
44.179949760437012
20
-2.5663387775421143
10
44.200000762939453
20
-3.0000001192092896
10
44.200000762939453
20
-53.000001907348633
10
44.179949760437012
20
-53.433661460876465
10
44.119973182678223
20
-53.863625526428223
10
44.020581245422363
20
-54.28621768951416
10
43.882617950439453
20
-54.697833061218262
10
43.707270622253418
20
-55.094971656799316
10
43.49602222442627
20
-55.474233627319336
10
43.25068473815918
20
-55.832381248474121
10
42.973341941833496
20
-56.166372299194336
10
42.666373252868652
20
-56.473345756530762
10
42.332382202148438
20
-56.750683784484863
10
41.974234580993652
20
-56.996021270751953
10
41.594972610473633
20
-57.207269668579102
10
41.197834014892578
20
-57.382616996765137
10
40.786218643188477
20
-57.520580291748047
10
40.363626480102539
20
-57.619972229003906
10
39.933662414550781
20
-57.679953575134277
10
39.500000476837158
20
-57.699999809265137
10
-38.700001239776611
20
-57.699999809265137
10
-39.141316413879395
20
-57.679233551025391
10
-39.578735828399658
20
-57.617125511169434
10
-40.008387565612793
20
-57.514214515686035
10
-40.426478385925293
20
-57.371416091918945
10
-40.829315185546875
20
-57.189993858337402
10
-41.213335990905762
20
-56.971545219421387
10
-41.575150489807129
20
-56.718001365661621
10
-41.911559104919434
20
-56.43160343170166
10
-42.219586372375488
20
-56.114888191223145
10
-42.496514320373535
20
-55.770645141601562
10
-42.739901542663574
20
-55.401921272277832
10
-42.947583198547363
20
-55.01197338104248
10
-43.117737770080566
20
-54.604249000549316
10
-43.24885368347168
20
-54.182353019714355
10
-43.339776992797852
20
-53.75
0
CIRCLE
5
101
100
AcDbEntity
8
0
100
AcDbCircle
10
-33.400001525878906
20
-8.2999999821186066
30
0
40
3.0000000000000004
210
0
220
0
230
1
0
CIRCLE
5
102
100
AcDbEntity
8
0
100
AcDbCircle
10
34.200000762939453
20
-8.2999999821186066
30
0
40
3.0000000000000004
210
0
220
0
230
1
0
CIRCLE
5
103
100
AcDbEntity
8
0
100
AcDbCircle
10
34.200000762939453
20
-47.699999809265137
30
0
40
3.0000000000000004
210
0
220
0
230
1
0
CIRCLE
5
104
100
AcDbEntity
8
0
100
AcDbCircle
10
-33.400001525878906
20
-47.699999809265137
30
0
40
3.0000000000000004
210
0
220
0
230
1
0
CIRCLE
5
105
100
AcDbEntity
8
0
100
AcDbCircle
10
-33.400001525878906
20
-8.2999999821186066
30
0
40
5
210
0
220
0
230
1
0
CIRCLE
5
106
100
AcDbEntity
8
0
100
AcDbCircle
10
34.200000762939453
20
-8.2999999821186066
30
0
40
5
210
0
220
0
230
1
0
CIRCLE
5
107
100
AcDbEntity
8
0
100
AcDbCircle
10
34.200000762939453
20
-47.699999809265137
30
0
40
5
210
0
220
0
230
1
0
CIRCLE
5
108
100
AcDbEntity
8
0
100
AcDbCircle
10
-33.400001525878906
20
-47.699999809265137
30
0
40
5
210
0
220
0
230
1
0
LINE
5
109
100
AcDbEntity
8
0
100
AcDbLine
10
39.500000476837158
20
2.7000001072883606
30
0
11
-38.700001239776611
21
2.7000001072883606
31
0
0
LWPOLYLINE
5
110
100
AcDbEntity
8
0
100
AcDbPolyline
90
4
70
1
43
0.0
10
-4.3500003814697283
20
-20.299999892711639
10
-2.8500003814697275
20
-20.299999892711639
10
-2.8500003814697275
20
-2.2999998927116394
10
-4.3500003814697283
20
-2.2999998927116394
0
LINE
5
111
100
AcDbEntity
8
0
100
AcDbLine
10
-33.400001525878906
20
-8.2999999821186066
30
0
11
34.200000762939453
21
-8.2999999821186066
31
0
0
LINE
5
112
100
AcDbEntity
8
0
100
AcDbLine
10
34.200000762939453
20
-8.2999999821186066
30
0
11
34.200000762939453
21
-47.699999809265137
31
0
0
LINE
5
113
100
AcDbEntity
8
0
100
AcDbLine
10
34.200000762939453
20
-47.699999809265137
30
0
11
-33.400001525878906
21
-47.699999809265137
31
0
0
LINE
5
114
100
AcDbEntity
8
0
100
AcDbLine
10
-33.400001525878906
20
-47.699999809265137
30
0
11
-33.400001525878906
21
-8.2999999821186066
31
0
0
LINE
5
115
100
AcDbEntity
8
0
100
AcDbLine
10
-33.400001525878906
20
-27.999999895691872
30
0
11
34.200000762939453
21
-27.999999895691872
31
0
0
LINE
5
116
100
AcDbEntity
8
0
100
AcDbLine
10
-33.400001525878906
20
-30.499999895691872
30
0
11
34.200000762939453
21
-30.499999895691872
31
0
0
LINE
5
117
100
AcDbEntity
8
0
100
AcDbLine
10
0.39999961853027344
20
-47.699999809265137
30
0
11
0.39999961853027344
21
-8.2999999821186066
31
0
0
LWPOLYLINE
5
118
100
AcDbEntity
8
0
100
AcDbPolyline
90
8
70
1
43
0.0
10
1.399999618530273
20
-46.699999809265137
10
1.3999996185302741
20
-31.499999895691872
42
0.41421356237309209
10
0.3999996185302726
20
-30.499999895691872
10
-0.60000038146972712
20
-31.499999895691872
42
-0.41421356237309209
10
-0.60000038146972956
20
-46.699999809265137
10
0.39999961853027277
20
-47.699999809265137
42
-0.41421356237309676
10
0.40000061853027319
20
-47.699999809265137
10
0.39999961853027316
20
-47.699999809265137
42
0.41421356237309676
0
ARC
5
119
100
AcDbEntity
8
0
100
AcDbCircle
10
-27.600000381469727
20
-46.699999809265137
30
0
40
0.99999999999999645
210
0
220
0
230
1
100
AcDbArc
50
-90.000000000000199
51
0
0
LINE
5
120
100
AcDbEntity
8
0
100
AcDbLine
10
-27.60000038146973
20
-47.699999809265137
30
0
11
-27.60000038146973
21
-47.699999809265137
31
0
0
ARC
5
121
100
AcDbEntity
8
0
100
AcDbCircle
10
-27.600000381469734
20
-46.699999809265137
30
0
40
0.99999999999999645
210
0
220
0
230
1
100
AcDbArc
50
180
51
270.00000000000023
0
LINE
5
122
100
AcDbEntity
8
0
100
AcDbLine
10
-28.60000038146973
20
-46.699999809265137
30
0
11
-28.60000038146973
21
-31.499999895691872
31
0
0
ARC
5
123
100
AcDbEntity
8
0
100
AcDbCircle
10
-27.600000381469727
20
-31.499999895691879
30
0
40
1.0000000000000053
210
0
220
0
230
1
100
AcDbArc
50
90.000000000000199
51
180
0
LINE
5
124
100
AcDbEntity
8
0
100
AcDbLine
10
-27.60000038146973
20
-30.499999895691872
30
0
11
-27.60000038146973
21
-30.499999895691872
31
0
0
ARC
5
125
100
AcDbEntity
8
0
100
AcDbCircle
10
-27.600000381469734
20
-31.499999895691879
30
0
40
1.0000000000000053
210
0
220
-0
230
1
100
AcDbArc
50
0
51
89.999999999999801
0
LINE
5
126
100
AcDbEntity
8
0
100
AcDbLine
10
-26.600000381469727
20
-31.499999895691872
30
0
11
-26.600000381469727
21
-46.699999809265137
31
0
0
ARC
5
127
100
AcDbEntity
8
0
100
AcDbCircle
10
-23.600000381469727
20
-46.699999809265137
30
0
40
0.99999999999999645
210
0
220
0
230
1
100
AcDbArc
50
-90.000000000000199
51
0
0
LINE
5
128
100
AcDbEntity
8
0
100
AcDbLine
10
-23.60000038146973
20
-47.699999809265137
30
0
11
-23.60000038146973
21
-47.699999809265137
31
0
0
ARC
5
129
100
AcDbEntity
8
0
100
AcDbCircle
10
-23.600000381469734
20
-46.699999809265137
30
0
40
0.99999999999999645
210
0
220
0
230
1
100
AcDbArc
50
180
51
270.00000000000023
0
LINE
5
130
100
AcDbEntity
8
0
100
AcDbLine
10
-24.60000038146973
20
-46.699999809265137
30
0
11
-24.60000038146973
21
-31.499999895691872
31
0
0
ARC
5
131
100
AcDbEntity
8
0
100
AcDbCircle
10
-23.600000381469727
20
-31.499999895691879
30
0
40
1.0000000000000053
210
0
220
0
230
1
100
AcDbArc
50
90.000000000000199
51
180
0
LINE
5
132
100
AcDbEntity
8
0
100
AcDbLine
10
-23.60000038146973
20
-30.499999895691872
30
0
11
-23.60000038146973
21
-30.499999895691872
31
0
0
ARC
5
133
100
AcDbEntity
8
0
100
AcDbCircle
10
-23.600000381469734
20
-31.499999895691879
30
0
40
1.0000000000000053
210
0
220
-0
230
1
100
AcDbArc
50
0
51
89.999999999999801
0
LINE
5
134
100
AcDbEntity
8
0
100
AcDbLine
10
-22.60000038146973
20
-31.499999895691872
30
0
11
-22.60000038146973
21
-46.699999809265137
31
0
0
ARC
5
135
100
AcDbEntity
8
0
100
AcDbCircle
10
-19.600000381469723
20
-46.699999809265137
30
0
40
0.99999999999999645
210
0
220
0
230
1
100
AcDbArc
50
-90.000000000000199
51
0
0
LINE
5
136
100
AcDbEntity
8
0
100
AcDbLine
10
-19.600000381469727
20
-47.699999809265137
30
0
11
-19.600000381469727
21
-47.699999809265137
31
0
0
ARC
5
137
100
AcDbEntity
8
0
100
AcDbCircle
10
-19.600000381469734
20
-46.699999809265137
30
0
40
0.99999999999999423
210
0
220
0
230
1
100
AcDbArc
50
180
51
270.0000000000004
0
LINE
5
138
100
AcDbEntity
8
0
100
AcDbLine
10
-20.600000381469727
20
-46.699999809265137
30
0
11
-20.600000381469727
21
-31.499999895691872
31
0
0
ARC
5
139
100
AcDbEntity
8
0
100
AcDbCircle
10
-19.600000381469723
20
-31.499999895691879
30
0
40
1.0000000000000053
210
0
220
0
230
1
100
AcDbArc
50
90.000000000000199
51
180
0
LINE
5
140
100
AcDbEntity
8
0
100
AcDbLine
10
-19.600000381469727
20
-30.499999895691872
30
0
11
-19.600000381469727
21
-30.499999895691872
31
0
0
ARC
5
141
100
AcDbEntity
8
0
100
AcDbCircle
10
-19.60000038146973
20
-31.499999895691879
30
0
40
1.0000000000000053
210
0
220
-0
230
1
100
AcDbArc
50
0
51
89.999999999999801
0
LINE
5
142
100
AcDbEntity
8
0
100
AcDbLine
10
-18.600000381469727
20
-31.499999895691872
30
0
11
-18.600000381469727
21
-46.699999809265137
31
0
0
ARC
5
143
100
AcDbEntity
8
0
100
AcDbCircle
10
-15.600000381469723
20
-46.699999809265137
30
0
40
0.99999999999999645
210
0
220
0
230
1
100
AcDbArc
50
-90.000000000000199
51
0
0
LINE
5
144
100
AcDbEntity
8
0
100
AcDbLine
10
-15.600000381469727
20
-47.699999809265137
30
0
11
-15.600000381469727
21
-47.699999809265137
31
0
0
ARC
5
145
100
AcDbEntity
8
0
100
AcDbCircle
10
-15.600000381469734
20
-46.699999809265137
30
0
40
0.99999999999999645
210
0
220
0
230
1
100
AcDbArc
50
180
51
270.0000000000004
0
LINE
5
146
100
AcDbEntity
8
0
100
AcDbLine
10
-16.60000038146973
20
-46.699999809265137
30
0
11
-16.600000381469727
21
-31.499999895691872
31
0
0
ARC
5
147
100
AcDbEntity
8
0
100
AcDbCircle
10
-15.600000381469723
20
-31.499999895691879
30
0
40
1.0000000000000053
210
0
220
0
230
1
100
AcDbArc
50
90.000000000000199
51
180
0
LINE
5
148
100
AcDbEntity
8
0
100
AcDbLine
10
-15.600000381469727
20
-30.499999895691872
30
0
11
-15.600000381469727
21
-30.499999895691872
31
0
0
ARC
5
149
100
AcDbEntity
8
0
100
AcDbCircle
10
-15.600000381469732
20
-31.499999895691879
30
0
40
1.0000000000000053
210
0
220
-0
230
1
100
AcDbArc
50
0
51
89.999999999999702
0
LINE
5
150
100
AcDbEntity
8
0
100
AcDbLine
10
-14.600000381469727
20
-31.499999895691872
30
0
11
-14.600000381469728
21
-46.699999809265137
31
0
0
ARC
5
151
100
AcDbEntity
8
0
100
AcDbCircle
10
-11.600000381469723
20
-46.699999809265137
30
0
40
0.99999999999999645
210
0
220
0
230
1
100
AcDbArc
50
-90.000000000000313
51
0
0
LINE
5
152
100
AcDbEntity
8
0
100
AcDbLine
10
-11.600000381469728
20
-47.699999809265137
30
0
11
-11.600000381469728
21
-47.699999809265137
31
0
0
ARC
5
153
100
AcDbEntity
8
0
100
AcDbCircle
10
-11.600000381469735
20
-46.699999809265137
30
0
40
0.99999999999999645
210
0
220
0
230
1
100
AcDbArc
50
180
51
270.0000000000004
0
LINE
5
154
100
AcDbEntity
8
0
100
AcDbLine
10
-12.600000381469732
20
-46.699999809265137
30
0
11
-12.60000038146973
21
-31.499999895691872
31
0
0
ARC
5
155
100
AcDbEntity
8
0
100
AcDbCircle
10
-11.600000381469723
20
-31.499999895691879
30
0
40
1.0000000000000053
210
0
220
0
230
1
100
AcDbArc
50
90.000000000000313
51
180
0
LINE
5
156
100
AcDbEntity
8
0
100
AcDbLine
10
-11.600000381469728
20
-30.499999895691872
30
0
11
-11.600000381469728
21
-30.499999895691872
31
0
0
ARC
5
157
100
AcDbEntity
8
0
100
AcDbCircle
10
-11.600000381469734
20
-31.499999895691879
30
0
40
1.0000000000000053
210
0
220
-0
230
1
100
AcDbArc
50
0
51
89.999999999999702
0
LINE
5
158
100
AcDbEntity
8
0
100
AcDbLine
10
-10.600000381469727
20
-31.499999895691872
30
0
11
-10.60000038146973
21
-46.699999809265137
31
0
0
ARC
5
159
100
AcDbEntity
8
0
100
AcDbCircle
10
-7.6000003814697212
20
-46.699999809265137
30
0
40
0.99999999999999645
210
0
220
0
230
1
100
AcDbArc
50
-90.000000000000313
51
0
0
LINE
5
160
100
AcDbEntity
8
0
100
AcDbLine
10
-7.6000003814697266
20
-47.699999809265137
30
0
11
-7.6000003814697283
21
-47.699999809265137
31
0
0
ARC
5
161
100
AcDbEntity
8
0
100
AcDbCircle
10
-7.6000003814697337
20
-46.699999809265137
30
0
40
0.99999999999999645
210
0
220
0
230
1
100
AcDbArc
50
180
51
270.00000000000034
0
LINE
5
162
100
AcDbEntity
8
0
100
AcDbLine
10
-8.6000003814697301
20
-46.699999809265137
30
0
11
-8.6000003814697283
21
-31.499999895691872
31
0
0
ARC
5
163
100
AcDbEntity
8
0
100
AcDbCircle
10
-7.600000381469723
20
-31.499999895691879
30
0
40
1.0000000000000053
210
0
220
0
230
1
100
AcDbArc
50
90.000000000000313
51
180
0
LINE
5
164
100
AcDbEntity
8
0
100
AcDbLine
10
-7.6000003814697283
20
-30.499999895691872
30
0
11
-7.6000003814697257
21
-30.499999895691872
31
0
0
ARC
5
165
100
AcDbEntity
8
0
100
AcDbCircle
10
-7.6000003814697319
20
-31.499999895691879
30
0
40
1.0000000000000053
210
0
220
-0
230
1
100
AcDbArc
50
0
51
89.999999999999645
0
LINE
5
166
100
AcDbEntity
8
0
100
AcDbLine
10
-6.6000003814697266
20
-31.499999895691872
30
0
11
-6.6000003814697275
21
-46.699999809265137
31
0
0
ARC
5
167
100
AcDbEntity
8
0
100
AcDbCircle
10
-3.6000003814697212
20
-46.699999809265137
30
0
40
0.99999999999999645
210
0
220
0
230
1
100
AcDbArc
50
-90.000000000000313
51
0
0
LINE
5
168
100
AcDbEntity
8
0
100
AcDbLine
10
-3.6000003814697266
20
-47.699999809265137
30
0
11
-3.6000003814697275
21
-47.699999809265137
31
0
0
ARC
5
169
100
AcDbEntity
8
0
100
AcDbCircle
10
-3.6000003814697337
20
-46.699999809265137
30
0
40
0.99999999999999645
210
0
220
0
230
1
100
AcDbArc
50
180
51
270.00000000000034
0
LINE
5
170
100
AcDbEntity
8
0
100
AcDbLine
10
-4.6000003814697301
20
-46.699999809265137
30
0
11
-4.6000003814697275
21
-31.499999895691872
31
0
0
ARC
5
171
100
AcDbEntity
8
0
100
AcDbCircle
10
-3.6000003814697217
20
-31.499999895691879
30
0
40
1.0000000000000053
210
0
220
0
230
1
100
AcDbArc
50
90.000000000000369
51
180
0
LINE
5
172
100
AcDbEntity
8
0
100
AcDbLine
10
-3.6000003814697279
20
-30.499999895691872
30
0
11
-3.6000003814697257
21
-30.499999895691872
31
0
0
ARC
5
173
100
AcDbEntity
8
0
100
AcDbCircle
10
-3.6000003814697319
20
-31.499999895691879
30
0
40
1.0000000000000058
210
0
220
-0
230
1
100
AcDbArc
50
0
51
89.999999999999645
0
LINE
5
174
100
AcDbEntity
8
0
100
AcDbLine
10
-2.6000003814697257
20
-31.499999895691872
30
0
11
-2.600000381469727
21
-46.699999809265137
31
0
0
ARC
5
175
100
AcDbEntity
8
0
100
AcDbCircle
10
4.3999996185302788
20
-46.699999809265137
30
0
40
0.99999999999999645
210
0
220
0
230
1
100
AcDbArc
50
-90.000000000000313
51
0
0
LINE
5
176
100
AcDbEntity
8
0
100
AcDbLine
10
4.3999996185302734
20
-47.699999809265137
30
0
11
4.3999996185302734
21
-47.699999809265137
31
0
0
ARC
5
177
100
AcDbEntity
8
0
100
AcDbCircle
10
4.3999996185302672
20
-46.699999809265137
30
0
40
0.99999999999999645
210
0
220
0
230
1
100
AcDbArc
50
180
51
270.00000000000034
0
LINE
5
178
100
AcDbEntity
8
0
100
AcDbLine
10
3.3999996185302708
20
-46.699999809265137
30
0
11
3.3999996185302734
21
-31.499999895691872
31
0
0
ARC
5
179
100
AcDbEntity
8
0
100
AcDbCircle
10
4.3999996185302788
20
-31.499999895691879
30
0
40
1.0000000000000053
210
0
220
0
230
1
100
AcDbArc
50
90.000000000000369
51
180
0
LINE
5
180
100
AcDbEntity
8
0
100
AcDbLine
10
4.3999996185302725
20
-30.499999895691872
30
0
11
4.3999996185302752
21
-30.499999895691872
31
0
0
ARC
5
181
100
AcDbEntity
8
0
100
AcDbCircle
10
4.399999618530269
20
-31.499999895691879
30
0
40
1.0000000000000058
210
0
220
-0
230
1
100
AcDbArc
50
0
51
89.999999999999645
0
LINE
5
182
100
AcDbEntity
8
0
100
AcDbLine
10
5.3999996185302743
20
-31.499999895691872
30
0
11
5.3999996185302734
21
-46.699999809265137
31
0
0
ARC
5
183
100
AcDbEntity
8
0
100
AcDbCircle
10
8.3999996185302788
20
-46.699999809265137
30
0
40
0.99999999999999645
210
0
220
0
230
1
100
AcDbArc
50
-90.000000000000313
51
0
0
LINE
5
184
100
AcDbEntity
8
0
100
AcDbLine
10
8.3999996185302734
20
-47.699999809265137
30
0
11
8.3999996185302734
21
-47.699999809265137
31
0
0
ARC
5
185
100
AcDbEntity
8
0
100
AcDbCircle
10
8.3999996185302663
20
-46.699999809265137
30
0
40
0.99999999999999645
210
0
220
0
230
1
100
AcDbArc
50
180
51
270.0000000000004
0
LINE
5
186
100
AcDbEntity
8
0
100
AcDbLine
10
7.3999996185302708
20
-46.699999809265137
30
0
11
7.3999996185302734
21
-31.499999895691872
31
0
0
ARC
5
187
100
AcDbEntity
8
0
100
AcDbCircle
10
8.3999996185302788
20
-31.499999895691879
30
0
40
1.0000000000000053
210
0
220
0
230
1
100
AcDbArc
50
90.000000000000313
51
180
0
LINE
5
188
100
AcDbEntity
8
0
100
AcDbLine
10
8.3999996185302734
20
-30.499999895691872
30
0
11
8.3999996185302752
21
-30.499999895691872
31
0
0
ARC
5
189
100
AcDbEntity
8
0
100
AcDbCircle
10
8.3999996185302699
20
-31.499999895691879
30
0
40
1.0000000000000053
210
0
220
-0
230
1
100
AcDbArc
50
0
51
89.999999999999702
0
LINE
5
190
100
AcDbEntity
8
0
100
AcDbLine
10
9.3999996185302752
20
-31.499999895691872
30
0
11
9.3999996185302734
21
-46.699999809265137
31
0
0
ARC
5
191
100
AcDbEntity
8
0
100
AcDbCircle
10
12.399999618530281
20
-46.699999809265137
30
0
40
0.99999999999999645
210
0
220
0
230
1
100
AcDbArc
50
-90.000000000000313
51
0
0
LINE
5
192
100
AcDbEntity
8
0
100
AcDbLine
10
12.399999618530275
20
-47.699999809265137
30
0
11
12.399999618530275
21
-47.699999809265137
31
0
0
ARC
5
193
100
AcDbEntity
8
0
100
AcDbCircle
10
12.399999618530268
20
-46.699999809265137
30
0
40
0.99999999999999645
210
0
220
0
230
1
100
AcDbArc
50
180
51
270.0000000000004
0
LINE
5
194
100
AcDbEntity
8
0
100
AcDbLine
10
11.399999618530272
20
-46.699999809265137
30
0
11
11.399999618530273
21
-31.499999895691872
31
0
0
ARC
5
195
100
AcDbEntity
8
0
100
AcDbCircle
10
12.399999618530281
20
-31.499999895691879
30
0
40
1.0000000000000053
210
0
220
0
230
1
100
AcDbArc
50
90.000000000000313
51
180
0
LINE
5
196
100
AcDbEntity
8
0
100
AcDbLine
10
12.399999618530275
20
-30.499999895691872
30
0
11
12.399999618530275
21
-30.499999895691872
31
0
0
ARC
5
197
100
AcDbEntity
8
0
100
AcDbCircle
10
12.39999961853027
20
-31.499999895691879
30
0
40
1.0000000000000053
210
0
220
-0
230
1
100
AcDbArc
50
0
51
89.999999999999702
0
LINE
5
198
100
AcDbEntity
8
0
100
AcDbLine
10
13.399999618530277
20
-31.499999895691872
30
0
11
13.399999618530273
21
-46.699999809265137
31
0
0
ARC
5
199
100
AcDbEntity
8
0
100
AcDbCircle
10
16.399999618530281
20
-46.699999809265137
30
0
40
0.99999999999999645
210
0
220
0
230
1
100
AcDbArc
50
-90.000000000000398
51
0
0
LINE
5
200
100
AcDbEntity
8
0
100
AcDbLine
10
16.399999618530273
20
-47.699999809265137
30
0
11
16.399999618530273
21
-47.699999809265137
31
0
0
ARC
5
201
100
AcDbEntity
8
0
100
AcDbCircle
10
16.399999618530266
20
-46.699999809265137
30
0
40
0.99999999999999645
210
0
220
0
230
1
100
AcDbArc
50
180
51
270.0000000000004
0
LINE
5
202
100
AcDbEntity
8
0
100
AcDbLine
10
15.399999618530272
20
-46.699999809265137
30
0
11
15.399999618530273
21
-31.499999895691872
31
0
0
ARC
5
203
100
AcDbEntity
8
0
100
AcDbCircle
10
16.399999618530281
20
-31.499999895691879
30
0
40
1.0000000000000053
210
0
220
0
230
1
100
AcDbArc
50
90.000000000000398
51
180
0
LINE
5
204
100
AcDbEntity
8
0
100
AcDbLine
10
16.399999618530273
20
-30.499999895691872
30
0
11
16.399999618530273
21
-30.499999895691872
31
0
0
ARC
5
205
100
AcDbEntity
8
0
100
AcDbCircle
10
16.39999961853027
20
-31.499999895691879
30
0
40
1.0000000000000053
210
0
220
-0
230
1
100
AcDbArc
50
0
51
89.999999999999801
0
LINE
5
206
100
AcDbEntity
8
0
100
AcDbLine
10
17.399999618530273
20
-31.499999895691872
30
0
11
17.399999618530273
21
-46.699999809265137
31
0
0
ARC
5
207
100
AcDbEntity
8
0
100
AcDbCircle
10
20.399999618530277
20
-46.699999809265137
30
0
40
0.99999999999999645
210
0
220
0
230
1
100
AcDbArc
50
-90.000000000000199
51
0
0
LINE
5
208
100
AcDbEntity
8
0
100
AcDbLine
10
20.399999618530273
20
-47.699999809265137
30
0
11
20.399999618530273
21
-47.699999809265137
31
0
0
ARC
5
209
100
AcDbEntity
8
0
100
AcDbCircle
10
20.39999961853027
20
-46.699999809265137
30
0
40
0.99999999999999867
210
0
220
0
230
1
100
AcDbArc
50
180
51
270.00000000000023
0
LINE
5
210
100
AcDbEntity
8
0
100
AcDbLine
10
19.39999961853027
20
-46.699999809265137
30
0
11
19.399999618530273
21
-31.499999895691872
31
0
0
ARC
5
211
100
AcDbEntity
8
0
100
AcDbCircle
10
20.399999618530277
20
-31.499999895691879
30
0
40
1.0000000000000053
210
0
220
0
230
1
100
AcDbArc
50
90.000000000000199
51
180
0
LINE
5
212
100
AcDbEntity
8
0
100
AcDbLine
10
20.399999618530273
20
-30.499999895691872
30
0
11
20.399999618530273
21
-30.499999895691872
31
0
0
ARC
5
213
100
AcDbEntity
8
0
100
AcDbCircle
10
20.39999961853027
20
-31.499999895691879
30
0
40
1.0000000000000053
210
0
220
-0
230
1
100
AcDbArc
50
0
51
89.999999999999801
0
LINE
5
214
100
AcDbEntity
8
0
100
AcDbLine
10
21.399999618530273
20
-31.499999895691872
30
0
11
21.399999618530273
21
-46.699999809265137
31
0
0
ARC
5
215
100
AcDbEntity
8
0
100
AcDbCircle
10
24.399999618530281
20
-46.699999809265137
30
0
40
0.99999999999999645
210
0
220
0
230
1
100
AcDbArc
50
-90.000000000000199
51
0
0
LINE
5
216
100
AcDbEntity
8
0
100
AcDbLine
10
24.399999618530277
20
-47.699999809265137
30
0
11
24.399999618530277
21
-47.699999809265137
31
0
0
ARC
5
217
100
AcDbEntity
8
0
100
AcDbCircle
10
24.399999618530273
20
-46.699999809265137
30
0
40
0.99999999999999645
210
0
220
0
230
1
100
AcDbArc
50
180
51
270.00000000000023
0
LINE
5
218
100
AcDbEntity
8
0
100
AcDbLine
10
23.399999618530277
20
-46.699999809265137
30
0
11
23.399999618530277
21
-31.499999895691872
31
0
0
ARC
5
219
100
AcDbEntity
8
0
100
AcDbCircle
10
24.399999618530281
20
-31.499999895691879
30
0
40
1.0000000000000053
210
0
220
0
230
1
100
AcDbArc
50
90.000000000000199
51
180
0
LINE
5
220
100
AcDbEntity
8
0
100
AcDbLine
10
24.399999618530277
20
-30.499999895691872
30
0
11
24.399999618530277
21
-30.499999895691872
31
0
0
ARC
5
221
100
AcDbEntity
8
0
100
AcDbCircle
10
24.399999618530273
20
-31.499999895691879
30
0
40
1.0000000000000053
210
0
220
-0
230
1
100
AcDbArc
50
0
51
89.999999999999801
0
LINE
5
222
100
AcDbEntity
8
0
100
AcDbLine
10
25.399999618530277
20
-31.499999895691872
30
0
11
25.399999618530277
21
-46.699999809265137
31
0
0
ARC
5
223
100
AcDbEntity
8
0
100
AcDbCircle
10
28.399999618530281
20
-46.699999809265137
30
0
40
0.99999999999999645
210
0
220
0
230
1
100
AcDbArc
50
-90.000000000000199
51
0
0
LINE
5
224
100
AcDbEntity
8
0
100
AcDbLine
10
28.399999618530277
20
-47.699999809265137
30
0
11
28.399999618530277
21
-47.699999809265137
31
0
0
ARC
5
225
100
AcDbEntity
8
0
100
AcDbCircle
10
28.399999618530273
20
-46.699999809265137
30
0
40
0.99999999999999645
210
0
220
0
230
1
100
AcDbArc
50
180
51
270.00000000000023
0
LINE
5
226
100
AcDbEntity
8
0
100
AcDbLine
10
27.399999618530273
20
-46.699999809265137
30
0
11
27.399999618530273
21
-31.499999895691872
31
0
0
ARC
5
227
100
AcDbEntity
8
0
100
AcDbCircle
10
28.399999618530281
20
-31.499999895691879
30
0
40
1.0000000000000053
210
0
220
0
230
1
100
AcDbArc
50
90.000000000000199
51
180
0
LINE
5
228
100
AcDbEntity
8
0
100
AcDbLine
10
28.399999618530277
20
-30.499999895691872
30
0
11
28.399999618530277
21
-30.499999895691872
31
0
0
ARC
5
229
100
AcDbEntity
8
0
100
AcDbCircle
10
28.399999618530273
20
-31.499999895691879
30
0
40
1.0000000000000053
210
0
220
-0
230
1
100
AcDbArc
50
0
51
89.999999999999801
0
LINE
5
230
100
AcDbEntity
8
0
100
AcDbLine
10
29.399999618530277
20
-31.499999895691872
30
0
11
29.399999618530277
21
-46.699999809265137
31
0
0
ARC
5
231
100
AcDbEntity
8
0
100
AcDbCircle
10
-27.600000381469727
20
-24.699999809265137
30
0
40
0.99999999999999645
210
0
220
0
230
1
100
AcDbArc
50
-90.000000000000199
51
0
0
LINE
5
232
100
AcDbEntity
8
0
100
AcDbLine
10
-27.60000038146973
20
-25.699999809265137
30
0
11
-27.60000038146973
21
-25.699999809265137
31
0
0
ARC
5
233
100
AcDbEntity
8
0
100
AcDbCircle
10
-27.600000381469734
20
-24.699999809265137
30
0
40
0.99999999999999645
210
0
220
0
230
1
100
AcDbArc
50
180
51
270.00000000000023
0
LINE
5
234
100
AcDbEntity
8
0
100
AcDbLine
10
-28.60000038146973
20
-24.699999809265137
30
0
11
-28.60000038146973
21
-9.4999998956918716
31
0
0
ARC
5
235
100
AcDbEntity
8
0
100
AcDbCircle
10
-27.600000381469727
20
-9.4999998956918752
30
0
40
1.0000000000000053
210
0
220
0
230
1
100
AcDbArc
50
90.000000000000199
51
180
0
LINE
5
236
100
AcDbEntity
8
0
100
AcDbLine
10
-27.60000038146973
20
-8.4999998956918699
30
0
11
-27.60000038146973
21
-8.4999998956918699
31
0
0
ARC
5
237
100
AcDbEntity
8
0
100
AcDbCircle
10
-27.600000381469734
20
-9.4999998956918752
30
0
40
1.0000000000000053
210
0
220
-0
230
1
100
AcDbArc
50
0
51
89.999999999999801
0
LINE
5
238
100
AcDbEntity
8
0
100
AcDbLine
10
-26.600000381469727
20
-9.4999998956918716
30
0
11
-26.600000381469727
21
-24.699999809265137
31
0
0
ARC
5
239
100
AcDbEntity
8
0
100
AcDbCircle
10
-23.600000381469727
20
-24.699999809265137
30
0
40
0.99999999999999645
210
0
220
0
230
1
100
AcDbArc
50
-90.000000000000199
51
0
0
LINE
5
240
100
AcDbEntity
8
0
100
AcDbLine
10
-23.60000038146973
20
-25.699999809265137
30
0
11
-23.60000038146973
21
-25.699999809265137
31
0
0
ARC
5
241
100
AcDbEntity
8
0
100
AcDbCircle
10
-23.600000381469734
20
-24.699999809265137
30
0
40
0.99999999999999645
210
0
220
0
230
1
100
AcDbArc
50
180
51
270.00000000000023
0
LINE
5
242
100
AcDbEntity
8
0
100
AcDbLine
10
-24.60000038146973
20
-24.699999809265137
30
0
11
-24.60000038146973
21
-9.4999998956918716
31
0
0
ARC
5
243
100
AcDbEntity
8
0
100
AcDbCircle
10
-23.600000381469727
20
-9.4999998956918752
30
0
40
1.0000000000000053
210
0
220
0
230
1
100
AcDbArc
50
90.000000000000199
51
180
0
LINE
5
244
100
AcDbEntity
8
0
100
AcDbLine
10
-23.60000038146973
20
-8.4999998956918699
30
0
11
-23.60000038146973
21
-8.4999998956918699
31
0
0
ARC
5
245
100
AcDbEntity
8
0
100
AcDbCircle
10
-23.600000381469734
20
-9.4999998956918752
30
0
40
1.0000000000000053
210
0
220
-0
230
1
100
AcDbArc
50
0
51
89.999999999999801
0
LINE
5
246
100
AcDbEntity
8
0
100
AcDbLine
10
-22.60000038146973
20
-9.4999998956918716
30
0
11
-22.60000038146973
21
-24.699999809265137
31
0
0
ARC
5
247
100
AcDbEntity
8
0
100
AcDbCircle
10
-19.600000381469723
20
-24.699999809265137
30
0
40
0.99999999999999645
210
0
220
0
230
1
100
AcDbArc
50
-90.000000000000199
51
0
0
LINE
5
248
100
AcDbEntity
8
0
100
AcDbLine
10
-19.600000381469727
20
-25.699999809265137
30
0
11
-19.600000381469727
21
-25.699999809265137
31
0
0
ARC
5
249
100
AcDbEntity
8
0
100
AcDbCircle
10
-19.600000381469734
20
-24.699999809265137
30
0
40
0.99999999999999423
210
0
220
0
230
1
100
AcDbArc
50
180
51
270.0000000000004
0
LINE
5
250
100
AcDbEntity
8
0
100
AcDbLine
10
-20.600000381469727
20
-24.699999809265137
30
0
11
-20.600000381469727
21
-9.4999998956918716
31
0
0
ARC
5
251
100
AcDbEntity
8
0
100
AcDbCircle
10
-19.600000381469723
20
-9.4999998956918752
30
0
40
1.0000000000000053
210
0
220
0
230
1
100
AcDbArc
50
90.000000000000199
51
180
0
LINE
5
252
100
AcDbEntity
8
0
100
AcDbLine
10
-19.600000381469727
20
-8.4999998956918699
30
0
11
-19.600000381469727
21
-8.4999998956918699
31
0
0
ARC
5
253
100
AcDbEntity
8
0
100
AcDbCircle
10
-19.60000038146973
20
-9.4999998956918752
30
0
40
1.0000000000000053
210
0
220
-0
230
1
100
AcDbArc
50
0
51
89.999999999999801
0
LINE
5
254
100
AcDbEntity
8
0
100
AcDbLine
10
-18.600000381469727
20
-9.4999998956918716
30
0
11
-18.600000381469727
21
-24.699999809265137
31
0
0
ARC
5
255
100
AcDbEntity
8
0
100
AcDbCircle
10
-15.600000381469723
20
-24.699999809265137
30
0
40
0.99999999999999645
210
0
220
0
230
1
100
AcDbArc
50
-90.000000000000199
51
0
0
LINE
5
256
100
AcDbEntity
8
0
100
AcDbLine
10
-15.600000381469727
20
-25.699999809265137
30
0
11
-15.600000381469727
21
-25.699999809265137
31
0
0
ARC
5
257
100
AcDbEntity
8
0
100
AcDbCircle
10
-15.600000381469734
20
-24.699999809265137
30
0
40
0.99999999999999645
210
0
220
0
230
1
100
AcDbArc
50
180
51
270.0000000000004
0
LINE
5
258
100
AcDbEntity
8
0
100
AcDbLine
10
-16.60000038146973
20
-24.699999809265137
30
0
11
-16.600000381469727
21
-9.4999998956918716
31
0
0
ARC
5
259
100
AcDbEntity
8
0
100
AcDbCircle
10
-15.600000381469723
20
-9.4999998956918752
30
0
40
1.0000000000000053
210
0
220
0
230
1
100
AcDbArc
50
90.000000000000199
51
180
0
LINE
5
260
100
AcDbEntity
8
0
100
AcDbLine
10
-15.600000381469727
20
-8.4999998956918699
30
0
11
-15.600000381469727
21
-8.4999998956918699
31
0
0
ARC
5
261
100
AcDbEntity
8
0
100
AcDbCircle
10
-15.600000381469732
20
-9.4999998956918752
30
0
40
1.0000000000000053
210
0
220
-0
230
1
100
AcDbArc
50
0
51
89.999999999999702
0
LINE
5
262
100
AcDbEntity
8
0
100
AcDbLine
10
-14.600000381469727
20
-9.4999998956918716
30
0
11
-14.600000381469728
21
-24.699999809265137
31
0
0
ARC
5
263
100
AcDbEntity
8
0
100
AcDbCircle
10
-11.600000381469723
20
-24.699999809265137
30
0
40
0.99999999999999645
210
0
220
0
230
1
100
AcDbArc
50
-90.000000000000313
51
0
0
LINE
5
264
100
AcDbEntity
8
0
100
AcDbLine
10
-11.600000381469728
20
-25.699999809265137
30
0
11
-11.600000381469728
21
-25.699999809265137
31
0
0
ARC
5
265
100
AcDbEntity
8
0
100
AcDbCircle
10
-11.600000381469735
20
-24.699999809265137
30
0
40
0.99999999999999645
210
0
220
0
230
1
100
AcDbArc
50
180
51
270.0000000000004
0
LINE
5
266
100
AcDbEntity
8
0
100
AcDbLine
10
-12.600000381469732
20
-24.699999809265137
30
0
11
-12.60000038146973
21
-9.4999998956918716
31
0
0
ARC
5
267
100
AcDbEntity
8
0
100
AcDbCircle
10
-11.600000381469723
20
-9.4999998956918752
30
0
40
1.0000000000000053
210
0
220
0
230
1
100
AcDbArc
50
90.000000000000313
51
180
0
LINE
5
268
100
AcDbEntity
8
0
100
AcDbLine
10
-11.600000381469728
20
-8.4999998956918699
30
0
11
-11.600000381469728
21
-8.4999998956918699
31
0
0
ARC
5
269
100
AcDbEntity
8
0
100
AcDbCircle
10
-11.600000381469734
20
-9.4999998956918752
30
0
40
1.0000000000000053
210
0
220
-0
230
1
100
AcDbArc
50
0
51
89.999999999999702
0
LINE
5
270
100
AcDbEntity
8
0
100
AcDbLine
10
-10.600000381469727
20
-9.4999998956918716
30
0
11
-10.60000038146973
21
-24.699999809265137
31
0
0
ARC
5
271
100
AcDbEntity
8
0
100
AcDbCircle
10
-7.6000003814697212
20
-24.699999809265137
30
0
40
0.99999999999999645
210
0
220
0
230
1
100
AcDbArc
50
-90.000000000000313
51
0
0
LINE
5
272
100
AcDbEntity
8
0
100
AcDbLine
10
-7.6000003814697266
20
-25.699999809265137
30
0
11
-7.6000003814697283
21
-25.699999809265137
31
0
0
ARC
5
273
100
AcDbEntity
8
0
100
AcDbCircle
10
-7.6000003814697337
20
-24.699999809265137
30
0
40
0.99999999999999645
210
0
220
0
230
1
100
AcDbArc
50
180
51
270.00000000000034
0
LINE
5
274
100
AcDbEntity
8
0
100
AcDbLine
10
-8.6000003814697301
20
-24.699999809265137
30
0
11
-8.6000003814697283
21
-9.4999998956918716
31
0
0
ARC
5
275
100
AcDbEntity
8
0
100
AcDbCircle
10
-7.600000381469723
20
-9.4999998956918752
30
0
40
1.0000000000000053
210
0
220
0
230
1
100
AcDbArc
50
90.000000000000313
51
180
0
LINE
5
276
100
AcDbEntity
8
0
100
AcDbLine
10
-7.6000003814697283
20
-8.4999998956918699
30
0
11
-7.6000003814697257
21
-8.4999998956918699
31
0
0
ARC
5
277
100
AcDbEntity
8
0
100
AcDbCircle
10
-7.6000003814697319
20
-9.4999998956918752
30
0
40
1.0000000000000053
210
0
220
-0
230
1
100
AcDbArc
50
0
51
89.999999999999645
0
LINE
5
278
100
AcDbEntity
8
0
100
AcDbLine
10
-6.6000003814697266
20
-9.4999998956918716
30
0
11
-6.6000003814697275
21
-24.699999809265137
31
0
0
ARC
5
279
100
AcDbEntity
8
0
100
AcDbCircle
10
-3.6000003814697212
20
-24.699999809265137
30
0
40
0.99999999999999645
210
0
220
0
230
1
100
AcDbArc
50
-90.000000000000313
51
0
0
LINE
5
280
100
AcDbEntity
8
0
100
AcDbLine
10
-3.6000003814697266
20
-25.699999809265137
30
0
11
-3.6000003814697275
21
-25.699999809265137
31
0
0
ARC
5
281
100
AcDbEntity
8
0
100
AcDbCircle
10
-3.6000003814697337
20
-24.699999809265137
30
0
40
0.99999999999999645
210
0
220
0
230
1
100
AcDbArc
50
180
51
270.00000000000034
0
LINE
5
282
100
AcDbEntity
8
0
100
AcDbLine
10
-4.6000003814697301
20
-24.699999809265137
30
0
11
-4.6000003814697275
21
-9.4999998956918716
31
0
0
ARC
5
283
100
AcDbEntity
8
0
100
AcDbCircle
10
-3.6000003814697217
20
-9.4999998956918752
30
0
40
1.0000000000000053
210
0
220
0
230
1
100
AcDbArc
50
90.000000000000369
51
180
0
LINE
5
284
100
AcDbEntity
8
0
100
AcDbLine
10
-3.6000003814697279
20
-8.4999998956918699
30
0
11
-3.6000003814697257
21
-8.4999998956918699
31
0
0
ARC
5
285
100
AcDbEntity
8
0
100
AcDbCircle
10
-3.6000003814697319
20
-9.4999998956918752
30
0
40
1.0000000000000058
210
0
220
-0
230
1
100
AcDbArc
50
0
51
89.999999999999645
0
LINE
5
286
100
AcDbEntity
8
0
100
AcDbLine
10
-2.6000003814697257
20
-9.4999998956918716
30
0
11
-2.600000381469727
21
-24.699999809265137
31
0
0
ARC
5
287
100
AcDbEntity
8
0
100
AcDbCircle
10
0.39999961853027888
20
-24.699999809265137
30
0
40
0.99999999999999645
210
0
220
0
230
1
100
AcDbArc
50
-90.000000000000313
51
0
0
LINE
5
288
100
AcDbEntity
8
0
100
AcDbLine
10
0.39999961853027316
20
-25.699999809265137
30
0
11
0.39999961853027277
21
-25.699999809265137
31
0
0
ARC
5
289
100
AcDbEntity
8
0
100
AcDbCircle
10
0.39999961853026689
20
-24.699999809265137
30
0
40
0.99999999999999645
210
0
220
0
230
1
100
AcDbArc
50
180
51
270.00000000000034
0
LINE
5
290
100
AcDbEntity
8
0
100
AcDbLine
10
-0.60000038146972956
20
-24.699999809265137
30
0
11
-0.60000038146972712
21
-9.4999998956918716
31
0
0
ARC
5
291
100
AcDbEntity
8
0
100
AcDbCircle
10
0.39999961853027821
20
-9.4999998956918752
30
0
40
1.0000000000000053
210
0
220
0
230
1
100
AcDbArc
50
90.000000000000313
51
180
0
LINE
5
292
100
AcDbEntity
8
0
100
AcDbLine
10
0.3999996185302726
20
-8.4999998956918699
30
0
11
0.39999961853027427
21
-8.4999998956918699
31
0
0
ARC
5
293
100
AcDbEntity
8
0
100
AcDbCircle
10
0.39999961853026866
20
-9.4999998956918752
30
0
40
1.0000000000000053
210
0
220
-0
230
1
100
AcDbArc
50
0
51
89.999999999999673
0
LINE
5
294
100
AcDbEntity
8
0
100
AcDbLine
10
1.3999996185302741
20
-9.4999998956918716
30
0
11
1.399999618530273
21
-24.699999809265137
31
0
0
ARC
5
295
100
AcDbEntity
8
0
100
AcDbCircle
10
4.3999996185302788
20
-24.699999809265137
30
0
40
0.99999999999999645
210
0
220
0
230
1
100
AcDbArc
50
-90.000000000000313
51
0
0
LINE
5
296
100
AcDbEntity
8
0
100
AcDbLine
10
4.3999996185302734
20
-25.699999809265137
30
0
11
4.3999996185302734
21
-25.699999809265137
31
0
0
ARC
5
297
100
AcDbEntity
8
0
100
AcDbCircle
10
4.3999996185302672
20
-24.699999809265137
30
0
40
0.99999999999999645
210
0
220
0
230
1
100
AcDbArc
50
180
51
270.00000000000034
0
LINE
5
298
100
AcDbEntity
8
0
100
AcDbLine
10
3.3999996185302708
20
-24.699999809265137
30
0
11
3.3999996185302734
21
-9.4999998956918716
31
0
0
ARC
5
299
100
AcDbEntity
8
0
100
AcDbCircle
10
4.3999996185302788
20
-9.4999998956918752
30
0
40
1.0000000000000053
210
0
220
0
230
1
100
AcDbArc
50
90.000000000000369
51
180
0
LINE
5
300
100
AcDbEntity
8
0
100
AcDbLine
10
4.3999996185302725
20
-8.4999998956918699
30
0
11
4.3999996185302752
21
-8.4999998956918699
31
0
0
ARC
5
301
100
AcDbEntity
8
0
100
AcDbCircle
10
4.399999618530269
20
-9.4999998956918752
30
0
40
1.0000000000000058
210
0
220
-0
230
1
100
AcDbArc
50
0
51
89.999999999999645
0
LINE
5
302
100
AcDbEntity
8
0
100
AcDbLine
10
5.3999996185302743
20
-9.4999998956918716
30
0
11
5.3999996185302734
21
-24.699999809265137
31
0
0
ARC
5
303
100
AcDbEntity
8
0
100
AcDbCircle
10
8.3999996185302788
20
-24.699999809265137
30
0
40
0.99999999999999645
210
0
220
0
230
1
100
AcDbArc
50
-90.000000000000313
51
0
0
LINE
5
304
100
AcDbEntity
8
0
100
AcDbLine
10
8.3999996185302734
20
-25.699999809265137
30
0
11
8.3999996185302734
21
-25.699999809265137
31
0
0
ARC
5
305
100
AcDbEntity
8
0
100
AcDbCircle
10
8.3999996185302663
20
-24.699999809265137
30
0
40
0.99999999999999645
210
0
220
0
230
1
100
AcDbArc
50
180
51
270.0000000000004
0
LINE
5
306
100
AcDbEntity
8
0
100
AcDbLine
10
7.3999996185302708
20
-24.699999809265137
30
0
11
7.3999996185302734
21
-9.4999998956918716
31
0
0
ARC
5
307
100
AcDbEntity
8
0
100
AcDbCircle
10
8.3999996185302788
20
-9.4999998956918752
30
0
40
1.0000000000000053
210
0
220
0
230
1
100
AcDbArc
50
90.000000000000313
51
180
0
LINE
5
308
100
AcDbEntity
8
0
100
AcDbLine
10
8.3999996185302734
20
-8.4999998956918699
30
0
11
8.3999996185302752
21
-8.4999998956918699
31
0
0
ARC
5
309
100
AcDbEntity
8
0
100
AcDbCircle
10
8.3999996185302699
20
-9.4999998956918752
30
0
40
1.0000000000000053
210
0
220
-0
230
1
100
AcDbArc
50
0
51
89.999999999999702
0
LINE
5
310
100
AcDbEntity
8
0
100
AcDbLine
10
9.3999996185302752
20
-9.4999998956918716
30
0
11
9.3999996185302734
21
-24.699999809265137
31
0
0
ARC
5
311
100
AcDbEntity
8
0
100
AcDbCircle
10
12.399999618530281
20
-24.699999809265137
30
0
40
0.99999999999999645
210
0
220
0
230
1
100
AcDbArc
50
-90.000000000000313
51
0
0
LINE
5
312
100
AcDbEntity
8
0
100
AcDbLine
10
12.399999618530275
20
-25.699999809265137
30
0
11
12.399999618530275
21
-25.699999809265137
31
0
0
ARC
5
313
100
AcDbEntity
8
0
100
AcDbCircle
10
12.399999618530268
20
-24.699999809265137
30
0
40
0.99999999999999645
210
0
220
0
230
1
100
AcDbArc
50
180
51
270.0000000000004
0
LINE
5
314
100
AcDbEntity
8
0
100
AcDbLine
10
11.399999618530272
20
-24.699999809265137
30
0
11
11.399999618530273
21
-9.4999998956918716
31
0
0
ARC
5
315
100
AcDbEntity
8
0
100
AcDbCircle
10
12.399999618530281
20
-9.4999998956918752
30
0
40
1.0000000000000053
210
0
220
0
230
1
100
AcDbArc
50
90.000000000000313
51
180
0
LINE
5
316
100
AcDbEntity
8
0
100
AcDbLine
10
12.399999618530275
20
-8.4999998956918699
30
0
11
12.399999618530275
21
-8.4999998956918699
31
0
0
ARC
5
317
100
AcDbEntity
8
0
100
AcDbCircle
10
12.39999961853027
20
-9.4999998956918752
30
0
40
1.0000000000000053
210
0
220
-0
230
1
100
AcDbArc
50
0
51
89.999999999999702
0
LINE
5
318
100
AcDbEntity
8
0
100
AcDbLine
10
13.399999618530277
20
-9.4999998956918716
30
0
11
13.399999618530273
21
-24.699999809265137
31
0
0
ARC
5
319
100
AcDbEntity
8
0
100
AcDbCircle
10
16.399999618530281
20
-24.699999809265137
30
0
40
0.99999999999999645
210
0
220
0
230
1
100
AcDbArc
50
-90.000000000000398
51
0
0
LINE
5
320
100
AcDbEntity
8
0
100
AcDbLine
10
16.399999618530273
20
-25.699999809265137
30
0
11
16.399999618530273
21
-25.699999809265137
31
0
0
ARC
5
321
100
AcDbEntity
8
0
100
AcDbCircle
10
16.399999618530266
20
-24.699999809265137
30
0
40
0.99999999999999645
210
0
220
0
230
1
100
AcDbArc
50
180
51
270.0000000000004
0
LINE
5
322
100
AcDbEntity
8
0
100
AcDbLine
10
15.399999618530272
20
-24.699999809265137
30
0
11
15.399999618530273
21
-9.4999998956918716
31
0
0
ARC
5
323
100
AcDbEntity
8
0
100
AcDbCircle
10
16.399999618530281
20
-9.4999998956918752
30
0
40
1.0000000000000053
210
0
220
0
230
1
100
AcDbArc
50
90.000000000000398
51
180
0
LINE
5
324
100
AcDbEntity
8
0
100
AcDbLine
10
16.399999618530273
20
-8.4999998956918699
30
0
11
16.399999618530273
21
-8.4999998956918699
31
0
0
ARC
5
325
100
AcDbEntity
8
0
100
AcDbCircle
10
16.39999961853027
20
-9.4999998956918752
30
0
40
1.0000000000000053
210
0
220
-0
230
1
100
AcDbArc
50
0
51
89.999999999999801
0
LINE
5
326
100
AcDbEntity
8
0
100
AcDbLine
10
17.399999618530273
20
-9.4999998956918716
30
0
11
17.399999618530273
21
-24.699999809265137
31
0
0
ARC
5
327
100
AcDbEntity
8
0
100
AcDbCircle
10
20.399999618530277
20
-24.699999809265137
30
0
40
0.99999999999999645
210
0
220
0
230
1
100
AcDbArc
50
-90.000000000000199
51
0
0
LINE
5
328
100
AcDbEntity
8
0
100
AcDbLine
10
20.399999618530273
20
-25.699999809265137
30
0
11
20.399999618530273
21
-25.699999809265137
31
0
0
ARC
5
329
100
AcDbEntity
8
0
100
AcDbCircle
10
20.39999961853027
20
-24.699999809265137
30
0
40
0.99999999999999867
210
0
220
0
230
1
100
AcDbArc
50
180
51
270.00000000000023
0
LINE
5
330
100
AcDbEntity
8
0
100
AcDbLine
10
19.39999961853027
20
-24.699999809265137
30
0
11
19.399999618530273
21
-9.4999998956918716
31
0
0
ARC
5
331
100
AcDbEntity
8
0
100
AcDbCircle
10
20.399999618530277
20
-9.4999998956918752
30
0
40
1.0000000000000053
210
0
220
0
230
1
100
AcDbArc
50
90.000000000000199
51
180
0
LINE
5
332
100
AcDbEntity
8
0
100
AcDbLine
10
20.399999618530273
20
-8.4999998956918699
30
0
11
20.399999618530273
21
-8.4999998956918699
31
0
0
ARC
5
333
100
AcDbEntity
8
0
100
AcDbCircle
10
20.39999961853027
20
-9.4999998956918752
30
0
40
1.0000000000000053
210
0
220
-0
230
1
100
AcDbArc
50
0
51
89.999999999999801
0
LINE
5
334
100
AcDbEntity
8
0
100
AcDbLine
10
21.399999618530273
20
-9.4999998956918716
30
0
11
21.399999618530273
21
-24.699999809265137
31
0
0
ARC
5
335
100
AcDbEntity
8
0
100
AcDbCircle
10
24.399999618530281
20
-24.699999809265137
30
0
40
0.99999999999999645
210
0
220
0
230
1
100
AcDbArc
50
-90.000000000000199
51
0
0
LINE
5
336
100
AcDbEntity
8
0
100
AcDbLine
10
24.399999618530277
20
-25.699999809265137
30
0
11
24.399999618530277
21
-25.699999809265137
31
0
0
ARC
5
337
100
AcDbEntity
8
0
100
AcDbCircle
10
24.399999618530273
20
-24.699999809265137
30
0
40
0.99999999999999645
210
0
220
0
230
1
100
AcDbArc
50
180
51
270.00000000000023
0
LINE
5
338
100
AcDbEntity
8
0
100
AcDbLine
10
23.399999618530277
20
-24.699999809265137
30
0
11
23.399999618530277
21
-9.4999998956918716
31
0
0
ARC
5
339
100
AcDbEntity
8
0
100
AcDbCircle
10
24.399999618530281
20
-9.4999998956918752
30
0
40
1.0000000000000053
210
0
220
0
230
1
100
AcDbArc
50
90.000000000000199
51
180
0
LINE
5
340
100
AcDbEntity
8
0
100
AcDbLine
10
24.399999618530277
20
-8.4999998956918699
30
0
11
24.399999618530277
21
-8.4999998956918699
31
0
0
ARC
5
341
100
AcDbEntity
8
0
100
AcDbCircle
10
24.399999618530273
20
-9.4999998956918752
30
0
40
1.0000000000000053
210
0
220
-0
230
1
100
AcDbArc
50
0
51
89.999999999999801
0
LINE
5
342
100
AcDbEntity
8
0
100
AcDbLine
10
25.399999618530277
20
-9.4999998956918716
30
0
11
25.399999618530277
21
-24.699999809265137
31
0
0
ARC
5
343
100
AcDbEntity
8
0
100
AcDbCircle
10
28.399999618530281
20
-24.699999809265137
30
0
40
0.99999999999999645
210
0
220
0
230
1
100
AcDbArc
50
-90.000000000000199
51
0
0
LINE
5
344
100
AcDbEntity
8
0
100
AcDbLine
10
28.399999618530277
20
-25.699999809265137
30
0
11
28.399999618530277
21
-25.699999809265137
31
0
0
ARC
5
345
100
AcDbEntity
8
0
100
AcDbCircle
10
28.399999618530273
20
-24.699999809265137
30
0
40
0.99999999999999645
210
0
220
0
230
1
100
AcDbArc
50
180
51
270.00000000000023
0
LINE
5
346
100
AcDbEntity
8
0
100
AcDbLine
10
27.399999618530273
20
-24.699999809265137
30
0
11
27.399999618530273
21
-9.4999998956918716
31
0
0
ARC
5
347
100
AcDbEntity
8
0
100
AcDbCircle
10
28.399999618530281
20
-9.4999998956918752
30
0
40
1.0000000000000053
210
0
220
0
230
1
100
AcDbArc
50
90.000000000000199
51
180
0
LINE
5
348
100
AcDbEntity
8
0
100
AcDbLine
10
28.399999618530277
20
-8.4999998956918699
30
0
11
28.399999618530277
21
-8.4999998956918699
31
0
0
ARC
5
349
100
AcDbEntity
8
0
100
AcDbCircle
10
28.399999618530273
20
-9.4999998956918752
30
0
40
1.0000000000000053
210
0
220
-0
230
1
100
AcDbArc
50
0
51
89.999999999999801
0
LINE
5
350
100
AcDbEntity
8
0
100
AcDbLine
10
29.399999618530277
20
-9.4999998956918716
30
0
11
29.399999618530277
21
-24.699999809265137
31
0
0
ENDSEC
0
SECTION
2
OBJECTS
0
DICTIONARY
5
C
100
AcDbDictionary
3
ACAD_GROUP
350
D
3
ACAD_MLINESTYLE
350
17
0
DICTIONARY
5
D
100
AcDbDictionary
0
DICTIONARY
5
1A
330
C
100
AcDbDictionary
0
DICTIONARY
5
17
100
AcDbDictionary
0
ENDSEC
0
EOF
