<?xml version="1.0" encoding="UTF-8"?>
<svg width="700pt" height="700pt" version="1.1" viewBox="0 0 700 700" xmlns="http://www.w3.org/2000/svg">
 <g>
  <path d="m341.55 276.34h40.016c8.0039 0 14.512-6.5117 14.512-14.512v-39.527c0-8.0273-6.5117-14.535-14.512-14.535h-40.016c-8.0273 0-14.535 6.5117-14.535 14.535v39.527c-0.003906 8.0039 6.5078 14.512 14.535 14.512zm4.1289-49.91h31.688v31.219h-31.688z"/>
  <path d="m243.06 300.32h13.254v103.88c0 8.0273 6.5117 14.535 14.512 14.535h56.234c8.0039 0 14.512-6.5117 14.512-14.535v-43.516h40.227v43.516c0 8.0273 6.5117 14.535 14.535 14.535h55.906c7.957 0 14.465-6.4883 14.535-14.535v-103.88h13.23c5.9023 0 11.152-3.5234 13.348-8.8906 2.332-5.4609 1.0977-11.691-3.1016-15.914l-35.605-35.629v-53.855c0-8.0039-6.5117-14.512-14.535-14.512h-31.941c-5.9258 0-11.012 3.5703-13.254 8.6562l-23.102-23.102c-5.5312-5.4844-15.121-5.3906-20.535 0l-118.54 118.54c-4.1055 4.1758-5.3203 10.336-3.1016 15.75 2.2422 5.4375 7.5156 8.9609 13.418 8.9609zm205.03 99.75h-47.602v-48.719c0-5.1562-4.1992-9.332-9.332-9.332h-58.895c-5.1562 0-9.332 4.1992-9.332 9.332v48.719h-47.926v-99.727h173.09zm-12.109-209.86v31.012l-23.637-23.637v-7.375zm-74.434-16.988 108.41 108.41h-216.86z"/>
  <path d="m129.45 448.56c-5.1562 0-9.332 4.1992-9.332 9.332s4.1992 9.332 9.332 9.332h13.742v65.285c0 14.77 12.016 26.762 26.762 26.762h383.16c14.77 0 26.762-12.016 26.762-26.762l0.003906-505.04c0-14.746-12.016-26.738-26.762-26.738l-383.16-0.003906c-14.77 0-26.762 11.992-26.762 26.738v65.262l-13.746 0.003906c-5.1562 0-9.332 4.1992-9.332 9.332 0 5.1328 4.1992 9.332 9.332 9.332h13.742v99.938h-13.742c-5.1562 0-9.332 4.1992-9.332 9.332 0 5.1328 4.1992 9.332 9.332 9.332h13.742v99.914l-13.742 0.003906c-5.1562 0-9.332 4.1992-9.332 9.332 0 5.1328 4.1992 9.332 9.332 9.332h13.742v99.914h-13.742zm32.434-99.91h13.766c5.1562 0 9.332-4.1992 9.332-9.332 0-5.1328-4.1992-9.332-9.332-9.332h-13.766v-99.941h13.766c5.1562 0 9.332-4.1992 9.332-9.332 0-5.1328-4.1992-9.332-9.332-9.332h-13.766v-99.961h13.766c5.1562 0 9.332-4.1992 9.332-9.332 0-5.1328-4.1992-9.332-9.332-9.332h-13.766v-65.289c0-4.457 3.6172-8.0977 8.0977-8.0977h383.16c4.457 0 8.0977 3.6406 8.0977 8.0977v505.07c0 4.457-3.6172 8.0977-8.0977 8.0977l-383.18-0.003907c-4.457 0-8.0977-3.6172-8.0977-8.0977v-65.285h13.766c5.1562 0 9.332-4.1992 9.332-9.332 0-5.1328-4.1992-9.332-9.332-9.332h-13.766v-99.938z"/>
 </g>
</svg>
