<?xml version="1.0" encoding="UTF-8"?>
<svg width="1200pt" height="1200pt" version="1.1" viewBox="0 0 1200 1200" xmlns="http://www.w3.org/2000/svg">
 <g>
  <path d="m3.7695 10.488c310.46-0.046875 620.93 0 931.37-0.011719 0.035156 5.2422 0.51562 10.621-0.25391 15.828-148.73-0.097657-297.43 0-446.16-0.058594-1.8711 0.058594-3.7422-0.20312-5.543 0.38281 0.15625 12.77 0.070312 25.523 0.035156 38.281 11.594 0.23828 23.293-0.046875 34.934 0.12109 0.058593 10.43-0.035157 20.855 0.035156 31.273 18.77 0.17969 37.586-0.38281 56.363-0.19141 171.42 0 342.86 0.011719 514.26 0 19.176 0.58984 39.168-1.2109 56.578-9.9492-7.1406-7.8945-15.07-15.059-22.453-22.777 3.5391-3.9375 7.2734-7.6797 11.195-11.184 8.3164 8.0508 16.285 16.43 24.625 24.434 8.832-8.1953 13.008-20.555 12.758-32.438 9.3945-0.12109 18.781-0.15625 28.152 0.011719 1.4297 18.035-4.5859 36.73-16.848 50.09-0.86328 1.1875-2.6641 2.0273-2.9023 3.5156 6.9258 7.1758 14.195 14.004 21.047 21.254-3.3594 3.9609-7.1523 7.6914-11.09 11.102-7.7539-7.3438-15.098-15.168-22.801-22.586-14.797 8.8555-31.691 13.668-48.672 15.875-19.848 2.7227-39.926 1.6797-59.867 1.8711-87.539 0.011719-175.02 0-262.56 0.011719-28.906 2.2188-57.289 17.184-73.129 41.797-10.609 16.199-15.707 35.449-17.074 54.59-0.625 7.2617-0.023437 14.578-0.69531 21.84-2.0039 32.941-16.367 64.945-39.648 88.344-21.816 22.285-51.395 36.781-82.367 40.273-6.1211 0.80469-12.266 0.75781-18.422 1.1172 0.035156 6.168 0.035156 12.312-0.023438 18.504 1.5703 0.53906 3.2539 0.3125 4.8828 0.37109 22.02-0.035157 44.039 0 66.086-0.011719v16.008h-332.47v-16.008c22.02 0.023437 44.004-0.023438 66.059 0.011719 1.6445-0.035157 3.3242 0.17969 4.8828-0.37109-0.046875-6.1914-0.046875-12.324-0.023437-18.504-17.23-0.20313-34.523-2.7227-50.688-8.9531-31.246-11.605-57.938-35.004-73.57-64.453-10.105-18.84-15.695-40.043-16.223-61.441-0.86328-28.766 7.5-57.781 23.762-81.551 21.516-31.992 56.953-54.227 95.184-59.375 10.812-1.7383 21.758-1.1758 32.664-1.2617 11.746-0.023437 23.508 0.023438 35.352-0.023437 0.070313-10.43-0.070312-20.855 0.035157-31.273 11.676-0.16797 23.387 0.035156 35.062-0.085937 0.058593-12.852 0.035156-25.691 0.035156-38.531-13.68-0.37109-27.336-0.046875-41.004-0.14453-136.93 0-273.84-0.023438-410.76 0-0.37109-5.1992-0.10547-10.48-0.10547-15.723zm343.89 132.42c-17.891 5.4258-34.246 16.066-45.852 30.781-14.953 19.105-22.402 43.547-22.777 67.633 37.094 0.16797 74.219 0.14453 111.31 0 0.097656-22.812 0-45.59 0.035156-68.41-0.14453-11.977 0.3125-23.988-0.21484-35.941-14.352 0.023438-28.801 1.6211-42.504 5.9375zm144.46 12.352c-0.070313 16.246 0 32.508-0.035156 48.781-16.188 0.10938-32.41-0.14453-48.562 0.13281 0.10937 19.766 0 39.562 0.035156 59.34 16.188 0.10938 32.34-0.10938 48.527 0.10938 0.035156 16.105-0.035157 32.27 0.035156 48.422 19.895 0.14453 39.781 0.14453 59.746 0 0.035156-16.152-0.058594-32.281 0-48.422 16.152-0.21484 32.34 0 48.527-0.10938 0.023438-19.777-0.085937-39.574 0.023438-59.34-16.176-0.26562-32.363 0-48.551-0.13281-0.058594-16.246 0.035156-32.531-0.035157-48.77-19.934-0.039062-39.828-0.039062-59.711-0.011719zm-90.41 217.96c-0.17969 6.3008-0.13281 12.59-0.011719 18.875 43.848 0.20312 87.758 0 131.64 0.10938 1.3555-0.023437 2.7461 0.097657 4.0547-0.38281-0.058593-6.1797-0.035156-12.336-0.035156-18.504-45.238-0.20312-90.445-0.023437-135.65-0.097656z"/>
  <path d="m0 1079.9s11.676 120.11 121.77 120.11 118.44-120.11 238.54-120.11 115.38 120.11 237.85 120.11c122.46 0 125.8-120.11 242.55-120.11 116.76 0 123.46 120.11 250.23 120.11 126.76 0 111.76-120.11 111.76-120.11v-71.734s-0.82812 70.895-120.94 70.895c-120.1 0-122.59-118.22-241.87-118.22-119.26 0-116.21 119.57-238.26 119.57-122.03 0-117.04-119.57-239.64-119.57s-122.61 119.57-241.04 119.57c-118.44 0.011719-120.94-70.152-120.94-70.152z"/>
  <path d="m0 923.47s11.676 120.11 121.77 120.11 118.44-120.11 238.54-120.11c120.1 0 115.38 120.11 237.85 120.11 122.46 0 125.8-120.11 242.55-120.11 116.76 0 123.45 120.11 250.22 120.11 126.76 0 111.76-120.11 111.76-120.11v-71.734s-0.82812 70.895-120.94 70.895c-120.1 0-122.59-118.22-241.87-118.22-119.26 0-116.21 119.57-238.26 119.57-122.03 0-117.04-119.57-239.64-119.57-122.61 0-122.61 119.57-241.04 119.57-118.44 0.011719-120.93-70.164-120.93-70.164z"/>
  <path d="m640.14 972.7-88.453 0.22266-0.44531-178.79 88.453-0.22266z"/>
  <path d="m632.62 750.09c0 20.59-16.695 37.281-37.285 37.281-20.59 0-37.285-16.691-37.285-37.281 0-20.594 16.695-37.285 37.285-37.285 20.59 0 37.285 16.691 37.285 37.285"/>
  <path d="m692.97 773.04 13.16 34.219-66.836 25.707-13.16-34.219z"/>
  <path d="m710.23 718.65 33.508 14.871-29.051 65.445-33.508-14.871z"/>
  <path d="m681.94 782.95c4.1289-9.2773 14.988-13.465 24.215-9.3242 9.2656 4.0938 13.441 14.953 9.3242 24.191-4.1406 9.2656-14.965 13.453-24.238 9.3242-9.2422-4.1055-13.441-14.953-9.3008-24.191z"/>
  <path d="m744.72 727.71c0 10.133-8.2148 18.348-18.348 18.348-10.133 0-18.348-8.2148-18.348-18.348 0-10.133 8.2148-18.348 18.348-18.348 10.133 0 18.348 8.2148 18.348 18.348"/>
  <path d="m551.88 831.2 9.8281-35.266-67.141-19.586-9.8125 35.258z"/>
  <path d="m475.73 804.21 31.227-17.844-33.891-62.555-31.281 17.844z"/>
  <path d="m506.14 785.29c-4.8125-8.8672-15.73-12.047-24.324-7.1055-8.6289 4.9219-11.746 16.105-6.9492 24.938 4.8125 8.8555 15.684 12.035 24.348 7.1055 8.6055-4.9219 11.762-16.105 6.9258-24.938z"/>
  <path d="m457.82 752.6c-9.8789-0.1875-17.73-8.5547-17.535-18.688 0.19531-10.129 8.3594-18.191 18.238-18 9.8828 0.19141 17.73 8.5547 17.539 18.688-0.19531 10.133-8.3633 18.191-18.242 18"/>
  <path transform="scale(12)" d="m42.246 34.016s1.0101 13.087 9.9329 19.151" stroke="#010101" stroke-miterlimit="10" stroke-width="1.5"/>
 </g>
</svg>
